# Blender v2.79 (sub 0) OBJ File: 'arrow.blend'
# www.blender.org
mtllib fork.mtl
o Cube.002
v -0.028863 -1.000000 0.057106
v -0.028863 0.558104 0.163295
v -0.028863 -1.000000 -0.057132
v -0.028863 0.558104 -0.163295
v 0.028863 -1.000000 0.057106
v 0.028863 0.558104 0.163295
v 0.028863 -1.000000 -0.057132
v 0.028863 0.558104 -0.163295
v -0.028863 -0.670592 0.112456
v -0.028863 -0.670592 -0.112481
v 0.028863 -0.670592 -0.112481
v 0.028863 -0.670592 0.112456
v -0.028863 -0.180884 0.066189
v -0.028863 -0.180884 -0.066189
v 0.028863 -0.180884 -0.066189
v 0.028863 -0.180884 0.066189
v -0.022276 0.399919 0.048402
v -0.022278 0.399921 -0.048407
v 0.022278 0.399921 -0.048407
v 0.022276 0.399919 0.048402
v -0.028863 0.537298 0.146096
v -0.028863 0.537298 -0.146096
v 0.028863 0.537298 -0.146096
v 0.028863 0.537298 0.146096
v -0.028863 -1.000000 -0.039009
v -0.028863 -1.000000 -0.020218
v -0.028863 -1.000000 -0.000009
v -0.028863 -1.000000 0.020195
v -0.028863 -1.000000 0.038985
v -0.028863 1.000000 0.135888
v -0.028863 0.558104 0.054432
v -0.028863 1.000000 -0.000000
v -0.028863 0.558104 -0.054432
v -0.028863 1.000000 -0.131826
v 0.028863 -1.000000 0.038985
v 0.028863 -1.000000 0.020195
v 0.028863 -1.000000 -0.000009
v 0.028863 -1.000000 -0.020218
v 0.028863 -1.000000 -0.039009
v 0.028863 1.000000 -0.131826
v 0.028863 0.558104 -0.054432
v 0.028863 1.000000 0.000000
v 0.028863 0.558104 0.054432
v 0.028863 1.000000 0.135888
v 0.028863 -0.670592 -0.078730
v 0.028863 -0.670592 -0.042415
v 0.028863 -0.670592 -0.000005
v 0.028863 -0.670592 0.042396
v 0.028863 -0.670592 0.078705
v -0.028863 -0.670592 0.078705
v -0.028863 -0.670592 0.042396
v -0.028863 -0.670592 -0.000005
v -0.028863 -0.670592 -0.042415
v -0.028863 -0.670592 -0.078730
v 0.028863 -0.180884 -0.044126
v 0.028863 -0.180884 -0.022063
v 0.028863 -0.180884 0.000000
v 0.028863 -0.180884 0.022063
v 0.028863 -0.180884 0.044126
v -0.028863 -0.180884 0.044126
v -0.028863 -0.180884 0.022063
v -0.028863 -0.180884 0.000000
v -0.028863 -0.180884 -0.022063
v -0.028863 -0.180884 -0.044126
v 0.022498 0.400244 -0.032591
v 0.022498 0.400244 -0.016296
v 0.022498 0.400244 -0.000001
v 0.022498 0.400244 0.016294
v 0.022498 0.400244 0.032589
v -0.022498 0.400244 0.032589
v -0.022498 0.400244 0.016294
v -0.022498 0.400244 -0.000001
v -0.022498 0.400244 -0.016296
v -0.022498 0.400244 -0.032591
v 0.028863 0.537298 -0.097397
v 0.028863 0.537298 -0.048699
v 0.028863 0.537298 0.000000
v 0.028863 0.537298 0.048699
v 0.028863 0.537298 0.097397
v -0.028863 0.537298 0.097397
v -0.028863 0.537298 0.048699
v -0.028863 0.537298 0.000000
v -0.028863 0.537298 -0.048699
v -0.028863 0.537298 -0.097397
v -0.028863 0.557214 0.162559
v -0.028863 0.557214 -0.162559
v 0.028863 0.557214 -0.162559
v 0.028863 0.557214 0.162559
v 0.028863 0.980215 -0.130354
v 0.028863 0.557214 -0.054186
v 0.028863 0.980215 0.000000
v 0.028863 0.557214 0.054186
v 0.028863 0.980215 0.134242
v -0.028863 0.980215 0.134242
v -0.028863 0.557214 0.054186
v -0.028863 0.980215 -0.000000
v -0.028863 0.557214 -0.054186
v -0.028863 0.980215 -0.130354
v 0.000000 -1.045887 -0.067672
v 0.000000 0.585118 -0.195573
v 0.000000 -1.045887 0.067605
v 0.000000 0.585118 0.195506
v 0.000000 -0.701066 0.130063
v 0.000000 -0.701066 -0.130130
v 0.000000 -0.188446 0.079226
v 0.000000 -0.188446 -0.079293
v 0.000000 0.416195 0.058888
v 0.000000 0.416195 -0.058942
v 0.000000 0.563338 0.174912
v 0.000000 0.563338 -0.174979
v 0.000000 1.047690 -0.157891
v 0.000000 0.585118 -0.065213
v 0.000000 1.047690 -0.000033
v 0.000000 0.585118 0.065147
v 0.000000 1.047690 0.162687
v 0.000000 -1.045887 -0.045822
v 0.000000 -1.045887 -0.023746
v 0.000000 -1.045887 -0.000033
v 0.000000 -1.045887 0.023680
v 0.000000 -1.045887 0.045755
v 0.000000 0.584186 0.194626
v 0.000000 0.584186 -0.194693
v -0.020754 0.365704 -0.045284
v 0.020754 0.365704 -0.045284
v 0.020754 0.365704 0.045282
v -0.020754 0.365704 0.045282
v -0.020754 0.365704 0.030188
v -0.020754 0.365704 0.015093
v -0.020754 0.365704 -0.000001
v -0.020754 0.365704 -0.015096
v -0.020754 0.365704 -0.030190
v 0.020754 0.365704 -0.030190
v 0.020754 0.365704 -0.015096
v 0.020754 0.365704 -0.000001
v 0.020754 0.365704 0.015093
v 0.020754 0.365704 0.030188
v 0.000000 0.378634 -0.054250
v 0.000000 0.378634 0.054200
vn -1.0000 -0.0000 0.0000
vn 0.2541 -0.6162 -0.7455
vn 1.0000 0.0000 0.0000
vn -0.2525 -0.6165 0.7458
vn 0.8465 -0.5324 0.0000
vn -0.7219 0.0490 0.6903
vn -0.5398 -0.1500 0.8283
vn 0.5407 -0.1499 -0.8278
vn -0.4492 0.0882 0.8891
vn 0.4503 0.0881 -0.8885
vn -0.3393 -0.1004 0.9353
vn 0.9987 -0.0504 -0.0000
vn 0.3412 -0.1005 -0.9346
vn -0.9987 -0.0504 0.0000
vn 0.0385 -0.5779 0.8152
vn 0.9985 -0.0525 0.0129
vn -0.0367 -0.5780 -0.8152
vn -0.9985 -0.0525 -0.0129
vn -0.9985 -0.0525 0.0129
vn -0.9989 -0.0464 -0.0000
vn 0.9985 -0.0525 -0.0129
vn 0.9989 -0.0464 0.0000
vn -0.7189 0.0564 -0.6928
vn 0.4892 0.1713 0.8552
vn -0.2257 0.1359 -0.9647
vn -0.2236 0.1360 0.9652
vn 0.4936 0.1794 -0.8510
vn -0.1911 -0.6254 0.7566
vn 0.1928 -0.6252 -0.7563
vn -0.1928 -0.6252 -0.7563
vn 0.1911 -0.6254 0.7566
vn -0.8465 -0.5324 0.0000
vn -0.1918 0.1779 -0.9652
vn 0.4348 0.1101 0.8938
vn 0.4365 0.1100 -0.8930
vn -0.2022 0.1690 0.9647
vn 0.7634 0.0459 -0.6443
vn 0.0367 -0.5780 -0.8152
vn -0.0385 -0.5779 0.8152
vn -0.3412 -0.1005 -0.9346
vn 0.3393 -0.1004 0.9353
vn -0.4503 0.0881 -0.8885
vn 0.4492 0.0882 0.8891
vn -0.5407 -0.1499 -0.8278
vn 0.5398 -0.1500 0.8283
vn 0.7607 0.0402 0.6479
vn 0.2525 -0.6165 0.7458
vn -0.2541 -0.6162 -0.7455
vn 0.4024 0.0410 0.9146
vn -0.4041 0.0409 -0.9138
vn 0.9999 0.0148 0.0000
vn -0.9999 0.0148 -0.0000
vn 0.4041 0.0409 -0.9138
vn -0.4024 0.0410 0.9146
vn 0.1672 -0.6774 -0.7164
vn -0.1655 -0.6776 0.7166
vn -0.7607 0.0402 0.6479
vn -0.6133 -0.1309 0.7789
vn 0.6140 -0.1308 -0.7784
vn -0.3912 0.0866 0.9162
vn 0.3929 0.0865 -0.9155
vn -0.3524 -0.1159 0.9286
vn 0.9989 -0.0456 0.0131
vn 0.3542 -0.1159 -0.9280
vn -0.9989 -0.0457 -0.0130
vn -0.2198 -0.6040 0.7660
vn 0.9989 -0.0479 0.0000
vn 0.2214 -0.6038 -0.7657
vn -0.9989 -0.0479 0.0000
vn -0.9989 -0.0456 0.0131
vn 0.9989 -0.0457 -0.0130
vn -0.7634 0.0459 -0.6443
vn 0.2022 0.1690 0.9647
vn -0.4365 0.1100 -0.8930
vn -0.4348 0.1101 0.8938
vn 0.1918 0.1779 -0.9652
vn -0.1630 -0.6779 0.7169
vn 0.1646 -0.6777 -0.7167
vn -0.1646 -0.6777 -0.7167
vn 0.1630 -0.6779 0.7169
vn -0.4936 0.1794 -0.8510
vn 0.2236 0.1360 0.9652
vn 0.2257 0.1359 -0.9647
vn -0.4892 0.1713 0.8552
vn 0.7189 0.0564 -0.6928
vn -0.2214 -0.6038 -0.7657
vn 0.2198 -0.6040 0.7660
vn -0.3542 -0.1159 -0.9280
vn 0.3524 -0.1159 0.9286
vn -0.3929 0.0865 -0.9155
vn 0.3912 0.0866 0.9162
vn -0.6140 -0.1308 -0.7784
vn 0.6133 -0.1309 0.7789
vn 0.7219 0.0490 0.6903
vn 0.1656 -0.6776 0.7166
vn -0.1672 -0.6774 -0.7164
vn 0.4155 0.0401 0.9087
vn -0.4172 0.0401 -0.9079
vn 0.4172 0.0401 -0.9079
vn -0.4155 0.0401 0.9087
usemtl None
s off
f 98//1 4//1 86//1
f 122//2 8//2 87//2
f 93//3 6//3 88//3
f 121//4 2//4 85//4
f 120//5 5//5 101//5
f 30//6 102//6 115//6
f 103//7 1//7 101//7
f 49//3 5//3 35//3
f 104//8 7//8 99//8
f 54//1 3//1 25//1
f 105//9 9//9 103//9
f 49//3 16//3 12//3
f 106//10 11//10 104//10
f 54//1 14//1 10//1
f 138//11 17//11 126//11
f 69//12 125//12 136//12
f 137//13 19//13 124//13
f 74//14 123//14 131//14
f 107//15 21//15 17//15
f 79//16 20//16 69//16
f 108//17 23//17 19//17
f 84//18 18//18 74//18
f 17//19 80//19 70//19
f 70//20 81//20 71//20
f 71//20 82//20 72//20
f 82//20 73//20 72//20
f 83//20 74//20 73//20
f 19//21 75//21 65//21
f 65//22 76//22 66//22
f 66//22 77//22 67//22
f 77//22 68//22 67//22
f 78//22 69//22 68//22
f 126//14 70//14 127//14
f 127//14 71//14 128//14
f 128//14 72//14 129//14
f 72//14 130//14 129//14
f 73//14 131//14 130//14
f 124//12 65//12 132//12
f 132//12 66//12 133//12
f 133//12 67//12 134//12
f 67//12 135//12 134//12
f 68//12 136//12 135//12
f 13//1 50//1 9//1
f 60//1 51//1 50//1
f 61//1 52//1 51//1
f 52//1 63//1 53//1
f 53//1 64//1 54//1
f 15//3 45//3 11//3
f 55//3 46//3 45//3
f 56//3 47//3 46//3
f 47//3 58//3 48//3
f 48//3 59//3 49//3
f 1//1 50//1 29//1
f 29//1 51//1 28//1
f 28//1 52//1 27//1
f 52//1 26//1 27//1
f 53//1 25//1 26//1
f 7//3 45//3 39//3
f 39//3 46//3 38//3
f 38//3 47//3 37//3
f 47//3 36//3 37//3
f 48//3 35//3 36//3
f 100//23 34//23 111//23
f 34//24 112//24 111//24
f 112//25 32//25 113//25
f 32//26 114//26 113//26
f 114//27 30//27 115//27
f 7//5 116//5 99//5
f 39//5 117//5 116//5
f 38//5 118//5 117//5
f 118//5 36//5 119//5
f 119//5 35//5 120//5
f 8//3 89//3 87//3
f 89//1 41//1 90//1
f 41//3 91//3 90//3
f 91//3 43//3 92//3
f 92//3 44//3 93//3
f 2//1 94//1 85//1
f 94//3 31//3 95//3
f 31//1 96//1 95//1
f 96//1 33//1 97//1
f 97//1 34//1 98//1
f 97//1 84//1 83//1
f 82//1 97//1 83//1
f 95//1 82//1 81//1
f 80//1 95//1 81//1
f 85//1 80//1 21//1
f 92//3 79//3 78//3
f 77//3 92//3 78//3
f 90//3 77//3 76//3
f 75//3 90//3 76//3
f 87//3 75//3 23//3
f 109//28 85//28 21//28
f 79//3 88//3 24//3
f 110//29 87//29 23//29
f 84//1 86//1 22//1
f 86//30 110//30 22//30
f 88//31 109//31 24//31
f 119//32 29//32 28//32
f 118//32 28//32 27//32
f 26//32 118//32 27//32
f 25//32 117//32 26//32
f 3//32 116//32 25//32
f 114//33 44//33 43//33
f 42//34 114//34 43//34
f 112//35 42//35 41//35
f 40//36 112//36 41//36
f 100//37 40//37 8//37
f 22//38 108//38 18//38
f 24//39 107//39 20//39
f 18//40 137//40 123//40
f 20//41 138//41 125//41
f 10//42 106//42 104//42
f 12//43 105//43 103//43
f 3//44 104//44 99//44
f 5//45 103//45 101//45
f 44//46 102//46 6//46
f 120//32 1//32 29//32
f 6//47 121//47 88//47
f 4//48 122//48 86//48
f 125//49 105//49 16//49
f 123//50 106//50 14//50
f 58//51 136//51 59//51
f 57//51 135//51 58//51
f 133//51 57//51 56//51
f 132//51 56//51 55//51
f 124//51 55//51 15//51
f 63//52 131//52 64//52
f 62//52 130//52 63//52
f 128//52 62//52 61//52
f 127//52 61//52 60//52
f 126//52 60//52 13//52
f 64//52 123//52 14//52
f 106//53 124//53 15//53
f 59//51 125//51 16//51
f 105//54 126//54 13//54
f 98//1 34//1 4//1
f 122//55 100//55 8//55
f 93//3 44//3 6//3
f 121//56 102//56 2//56
f 120//5 35//5 5//5
f 30//57 2//57 102//57
f 103//58 9//58 1//58
f 49//3 12//3 5//3
f 104//59 11//59 7//59
f 54//1 10//1 3//1
f 105//60 13//60 9//60
f 49//3 59//3 16//3
f 106//61 15//61 11//61
f 54//1 64//1 14//1
f 138//62 107//62 17//62
f 69//63 20//63 125//63
f 137//64 108//64 19//64
f 74//65 18//65 123//65
f 107//66 109//66 21//66
f 79//67 24//67 20//67
f 108//68 110//68 23//68
f 84//69 22//69 18//69
f 17//69 21//69 80//69
f 70//20 80//20 81//20
f 71//20 81//20 82//20
f 82//20 83//20 73//20
f 83//20 84//20 74//20
f 19//67 23//67 75//67
f 65//22 75//22 76//22
f 66//22 76//22 77//22
f 77//22 78//22 68//22
f 78//22 79//22 69//22
f 126//70 17//70 70//70
f 127//14 70//14 71//14
f 128//14 71//14 72//14
f 72//14 73//14 130//14
f 73//14 74//14 131//14
f 124//71 19//71 65//71
f 132//12 65//12 66//12
f 133//12 66//12 67//12
f 67//12 68//12 135//12
f 68//12 69//12 136//12
f 13//1 60//1 50//1
f 60//1 61//1 51//1
f 61//1 62//1 52//1
f 52//1 62//1 63//1
f 53//1 63//1 64//1
f 15//3 55//3 45//3
f 55//3 56//3 46//3
f 56//3 57//3 47//3
f 47//3 57//3 58//3
f 48//3 58//3 59//3
f 1//1 9//1 50//1
f 29//1 50//1 51//1
f 28//1 51//1 52//1
f 52//1 53//1 26//1
f 53//1 54//1 25//1
f 7//3 11//3 45//3
f 39//3 45//3 46//3
f 38//3 46//3 47//3
f 47//3 48//3 36//3
f 48//3 49//3 35//3
f 100//72 4//72 34//72
f 34//73 33//73 112//73
f 112//74 33//74 32//74
f 32//75 31//75 114//75
f 114//76 31//76 30//76
f 7//5 39//5 116//5
f 39//5 38//5 117//5
f 38//5 37//5 118//5
f 118//5 37//5 36//5
f 119//5 36//5 35//5
f 8//3 40//3 89//3
f 89//3 40//3 41//3
f 41//3 42//3 91//3
f 91//3 42//3 43//3
f 92//1 43//1 44//1
f 2//1 30//1 94//1
f 94//1 30//1 31//1
f 31//1 32//1 96//1
f 96//1 32//1 33//1
f 97//3 33//3 34//3
f 97//1 98//1 84//1
f 82//1 96//1 97//1
f 95//1 96//1 82//1
f 80//1 94//1 95//1
f 85//1 94//1 80//1
f 92//3 93//3 79//3
f 77//3 91//3 92//3
f 90//3 91//3 77//3
f 75//3 89//3 90//3
f 87//3 89//3 75//3
f 109//77 121//77 85//77
f 79//3 93//3 88//3
f 110//78 122//78 87//78
f 84//1 98//1 86//1
f 86//79 122//79 110//79
f 88//80 121//80 109//80
f 119//32 120//32 29//32
f 118//32 119//32 28//32
f 26//32 117//32 118//32
f 25//32 116//32 117//32
f 3//32 99//32 116//32
f 114//81 115//81 44//81
f 42//82 113//82 114//82
f 112//83 113//83 42//83
f 40//84 111//84 112//84
f 100//85 111//85 40//85
f 22//86 110//86 108//86
f 24//87 109//87 107//87
f 18//88 108//88 137//88
f 20//89 107//89 138//89
f 10//90 14//90 106//90
f 12//91 16//91 105//91
f 3//92 10//92 104//92
f 5//93 12//93 103//93
f 44//94 115//94 102//94
f 120//32 101//32 1//32
f 6//95 102//95 121//95
f 4//96 100//96 122//96
f 125//97 138//97 105//97
f 123//98 137//98 106//98
f 58//51 135//51 136//51
f 57//51 134//51 135//51
f 133//51 134//51 57//51
f 132//51 133//51 56//51
f 124//51 132//51 55//51
f 63//52 130//52 131//52
f 62//52 129//52 130//52
f 128//52 129//52 62//52
f 127//52 128//52 61//52
f 126//52 127//52 60//52
f 64//52 131//52 123//52
f 106//99 137//99 124//99
f 59//51 136//51 125//51
f 105//100 138//100 126//100
