# Blender v2.79 (sub 0) OBJ File: 'arrow.blend'
# www.blender.org
mtllib gear.mtl
o Cylinder
v -0.894230 -0.000000 -1.367980
v 0.894230 -0.000000 -1.367980
v -0.894230 -0.254933 -1.341694
v 0.894230 -0.254932 -1.341694
v -0.894230 -0.500068 -1.263848
v 0.894230 -0.500068 -1.263848
v -0.894230 -0.725986 -1.137434
v 0.894230 -0.725986 -1.137434
v -0.894230 -0.924005 -0.967308
v 0.894230 -0.924005 -0.967308
v -0.894230 -1.086515 -0.760009
v 0.894230 -1.086515 -0.760009
v -0.894230 -1.207271 -0.523503
v 0.894230 -1.207271 -0.523503
v -0.894230 -1.281632 -0.266880
v 0.894230 -1.281632 -0.266880
v -0.894230 -1.306741 -0.000001
v 0.894230 -1.306741 -0.000001
v -0.894230 -1.281632 0.266879
v 0.894230 -1.281632 0.266879
v -0.894230 -1.207271 0.523502
v 0.894230 -1.207271 0.523502
v -0.894230 -1.086515 0.760008
v 0.894230 -1.086515 0.760008
v -0.894230 -0.924005 0.967307
v 0.894230 -0.924005 0.967307
v -0.894230 -0.725986 1.137433
v 0.894230 -0.725986 1.137433
v -0.894230 -0.500068 1.263848
v 0.894230 -0.500068 1.263848
v -0.894230 -0.254932 1.341694
v 0.894230 -0.254932 1.341694
v -0.894230 0.000000 1.367979
v 0.894230 0.000000 1.367979
v -0.894230 0.254933 1.341693
v 0.894230 0.254933 1.341693
v -0.894230 0.500068 1.263847
v 0.894230 0.500068 1.263847
v -0.894230 0.725987 1.137432
v 0.894230 0.725987 1.137432
v -0.894230 0.924006 0.967306
v 0.894230 0.924006 0.967306
v -0.894230 1.086515 0.760007
v 0.894230 1.086516 0.760007
v -0.894230 1.207271 0.523502
v 0.894230 1.207271 0.523502
v -0.894230 1.281632 0.266878
v 0.894230 1.281632 0.266878
v -0.894230 1.306740 -0.000002
v 0.894230 1.306740 -0.000002
v -0.894230 1.281631 -0.266881
v 0.894230 1.281631 -0.266881
v -0.894230 1.207270 -0.523505
v 0.894230 1.207270 -0.523505
v -0.894230 1.086514 -0.760010
v 0.894230 1.086514 -0.760010
v -0.894230 0.924004 -0.967309
v 0.894230 0.924004 -0.967309
v -0.894230 0.725985 -1.137435
v 0.894230 0.725985 -1.137435
v -0.894230 0.500066 -1.263849
v 0.894230 0.500066 -1.263849
v -0.894230 0.254930 -1.341695
v 0.894230 0.254930 -1.341695
v -0.840133 -0.000000 -2.687271
v -1.098408 -0.685430 -3.445888
v 1.098408 -0.685430 -3.445888
v 0.840133 0.000000 -2.687271
v -1.098408 -1.344519 -3.245955
v 1.098409 -1.344519 -3.245955
v -0.840133 -1.492968 -2.234384
v 0.840133 -1.492967 -2.234384
v -0.840133 -1.900187 -1.900187
v 0.840133 -1.900187 -1.900187
v -1.098408 -2.921283 -1.951938
v 1.098409 -2.921283 -1.951938
v -1.098408 -3.245955 -1.344518
v 1.098409 -3.245955 -1.344518
v -0.840133 -2.635635 -0.524261
v 0.840133 -2.635635 -0.524261
v -0.840133 -2.687270 -0.000000
v 0.840133 -2.687270 -0.000000
v -1.098408 -3.445888 0.685429
v 1.098409 -3.445888 0.685429
v -1.098408 -3.245955 1.344518
v 1.098409 -3.245955 1.344518
v -0.840133 -2.234384 1.492967
v 0.840133 -2.234384 1.492967
v -0.840133 -1.900187 1.900187
v 0.840133 -1.900187 1.900187
v -1.098408 -1.951939 2.921283
v 1.098409 -1.951938 2.921283
v -1.098408 -1.344518 3.245955
v 1.098409 -1.344518 3.245955
v -0.840133 -0.524260 2.635635
v 0.840133 -0.524260 2.635635
v -0.840133 0.000001 2.687270
v 0.840133 0.000001 2.687270
v -1.098408 0.685431 3.445887
v 1.098408 0.685431 3.445887
v -1.098409 1.344520 3.245955
v 1.098408 1.344520 3.245955
v -0.840133 1.492969 2.234383
v 0.840133 1.492969 2.234383
v -0.840133 1.900188 1.900186
v 0.840133 1.900189 1.900186
v -1.098409 2.921284 1.951937
v 1.098408 2.921284 1.951937
v -1.098409 3.245956 1.344516
v 1.098408 3.245956 1.344516
v -0.840133 2.635636 0.524258
v 0.840133 2.635636 0.524258
v -0.840133 2.687271 -0.000003
v 0.840133 2.687271 -0.000003
v -1.098409 3.445887 -0.685433
v 1.098408 3.445887 -0.685433
v -1.098409 3.245954 -1.344522
v 1.098408 3.245954 -1.344522
v -0.840133 2.234382 -1.492970
v 0.840133 2.234382 -1.492970
v -0.840133 1.900185 -1.900190
v 0.840133 1.900185 -1.900190
v -1.098409 1.951934 -2.921285
v 1.098408 1.951935 -2.921285
v -1.098409 1.344514 -3.245957
v 1.098408 1.344514 -3.245957
v -0.840133 0.524256 -2.635636
v 0.840133 0.524256 -2.635636
vn 0.9992 0.0262 -0.0305
vn -0.9992 -0.0198 -0.0354
vn 0.9992 0.0264 0.0308
vn -0.9462 0.2058 0.2498
vn 0.9426 0.2016 0.2662
vn -0.9992 0.0256 0.0312
vn 0.9955 0.0288 0.0907
vn -0.9992 -0.0355 0.0181
vn 0.9992 0.0309 -0.0254
vn -0.9955 0.0275 0.0908
vn 0.9460 0.2515 -0.2046
vn -0.9992 0.0317 -0.0248
vn 0.9957 0.0887 -0.0269
vn -0.9992 0.0198 0.0354
vn -0.9957 0.0893 -0.0259
vn 0.9426 -0.2016 -0.2662
vn 0.9992 -0.0042 -0.0410
vn 0.9955 -0.0288 -0.0907
vn -0.9992 0.0355 -0.0181
vn -0.9441 0.3288 0.0243
vn 0.9992 -0.0392 0.0037
vn -0.9955 -0.0275 -0.0908
vn -0.9445 0.0258 -0.3274
vn 0.9957 -0.0887 0.0269
vn 0.9992 0.0042 0.0410
vn -0.9957 -0.0893 0.0259
vn 0.9992 -0.0392 -0.0037
vn -0.9441 -0.3288 -0.0243
vn -0.9992 -0.0392 -0.0039
vn 0.9992 0.0392 -0.0037
vn -0.0000 0.9956 0.0937
vn 0.9992 -0.0040 0.0409
vn -0.9445 -0.0258 0.3274
vn -0.0000 0.9605 0.2783
vn 0.0000 0.7420 -0.6704
vn 0.0000 -0.2903 -0.9569
vn 0.0000 -0.9894 -0.1452
vn 0.0000 -0.6344 -0.7730
vn 0.0000 0.0506 -0.9987
vn 0.0000 -0.8819 -0.4714
vn 0.0000 -0.8023 0.5969
vn 0.0000 -0.9952 -0.0980
vn 0.0000 -0.6704 -0.7420
vn 0.0000 -0.9569 0.2903
vn 0.0000 -0.1452 0.9894
vn 0.0000 -0.7730 0.6344
vn 0.0000 -0.9987 -0.0506
vn 0.0000 -0.4714 0.8819
vn 0.0000 0.5969 0.8023
vn 0.0000 -0.0980 0.9952
vn 0.0000 -0.7420 0.6704
vn 0.0000 0.2903 0.9569
vn -0.0000 0.9894 0.1452
vn -0.0000 0.6344 0.7730
vn 0.0000 -0.0506 0.9987
vn 0.0000 0.8819 0.4714
vn 0.0000 0.8023 -0.5969
vn 0.0000 0.9952 0.0980
vn 0.0000 0.6704 0.7420
vn 0.0000 0.9569 -0.2903
vn 0.0000 0.1452 -0.9894
vn -0.0000 0.7730 -0.6344
vn -0.0000 0.9987 0.0506
vn -0.0000 0.4714 -0.8819
vn 0.0000 -0.5969 -0.8023
vn 0.0000 0.0980 -0.9952
vn -0.9992 -0.0317 0.0248
vn 0.9460 -0.2515 0.2046
vn -0.9423 -0.2497 0.2229
vn 0.9992 -0.0309 0.0254
vn -0.9955 -0.0463 0.0828
vn 0.9992 0.0317 0.0248
vn -0.9992 -0.0256 -0.0312
vn 0.9955 -0.0445 0.0833
vn -0.9462 -0.2058 -0.2498
vn 0.9992 -0.0264 -0.0308
vn -0.9957 -0.0821 -0.0439
vn 0.9992 -0.0262 0.0305
vn -0.9992 0.0124 -0.0392
vn 0.9956 -0.0832 -0.0425
vn -0.9423 0.2497 -0.2229
vn 0.9433 -0.3290 -0.0430
vn -0.9955 0.0463 -0.0828
vn 0.9992 -0.0317 -0.0248
vn -0.9992 0.0378 0.0110
vn 0.9955 0.0445 -0.0833
vn -0.9992 0.0042 -0.0410
vn 0.9452 0.0360 -0.3244
vn -0.9957 0.0821 0.0439
vn 0.9992 0.0040 -0.0409
vn -0.9992 -0.0124 0.0392
vn 0.9956 0.0832 0.0425
vn -0.9992 0.0392 0.0039
vn 0.9433 0.3290 0.0430
vn 0.9992 0.0392 0.0037
vn -0.9992 -0.0378 -0.0110
vn -0.9992 -0.0042 0.0410
vn 0.9452 -0.0360 0.3244
vn -0.0000 0.9956 -0.0937
vn -0.0000 0.9605 -0.2783
vn -0.0000 0.8906 -0.4547
vn -0.0000 0.7870 -0.6170
vn -0.0000 0.6517 -0.7585
vn 0.0000 0.4883 -0.8727
vn 0.0000 0.3027 -0.9531
vn 0.0000 0.1026 -0.9947
vn 0.0000 -0.1026 -0.9947
vn 0.0000 -0.3027 -0.9531
vn -0.0000 -0.4883 -0.8727
vn 0.0000 -0.6517 -0.7585
vn 0.0000 -0.7870 -0.6170
vn 0.0000 -0.8906 -0.4547
vn 0.0000 -0.9605 -0.2783
vn 0.0000 -0.9956 -0.0937
vn 0.0000 -0.9956 0.0937
vn 0.0000 -0.9605 0.2783
vn 0.0000 -0.8906 0.4547
vn 0.0000 -0.7870 0.6170
vn 0.0000 -0.6517 0.7585
vn -0.0000 -0.4883 0.8727
vn -0.0000 -0.3027 0.9531
vn 0.0000 -0.1026 0.9947
vn 0.0000 0.1026 0.9947
vn 0.0000 0.3027 0.9531
vn 0.0000 0.4883 0.8727
vn -0.0000 0.6517 0.7585
vn -0.0000 0.7870 0.6170
vn -0.0000 0.8906 0.4547
vn 0.9462 0.2058 0.2498
vn -0.9460 -0.2515 0.2046
vn 0.9992 0.0256 0.0312
vn -0.9992 0.0262 -0.0305
vn 0.9992 -0.0355 0.0181
vn -0.9992 0.0264 0.0308
vn 0.9955 0.0275 0.0908
vn -0.9426 0.2016 0.2662
vn 0.9992 0.0317 -0.0248
vn -0.9955 0.0288 0.0907
vn 0.9992 0.0198 0.0354
vn -0.9992 0.0309 -0.0254
vn 0.9957 0.0893 -0.0259
vn -0.9460 0.2515 -0.2046
vn -0.9957 0.0887 -0.0269
vn 0.9992 0.0355 -0.0181
vn 0.9441 0.3288 0.0243
vn 0.9955 -0.0275 -0.0908
vn -0.9426 -0.2016 -0.2662
vn -0.9992 -0.0042 -0.0410
vn 0.9445 0.0258 -0.3274
vn -0.9955 -0.0288 -0.0907
vn -0.9992 -0.0392 0.0037
vn 0.9957 -0.0893 0.0259
vn 0.9441 -0.3288 -0.0243
vn -0.9957 -0.0887 0.0269
vn 0.9992 -0.0392 -0.0039
vn -0.9992 0.0042 0.0410
vn -0.9992 -0.0392 -0.0037
vn 0.9445 -0.0258 0.3274
vn 0.9992 -0.0042 0.0410
vn -0.9992 0.0392 -0.0037
vn -0.9992 -0.0309 0.0254
vn 0.9992 -0.0198 -0.0354
vn -0.9992 0.0317 0.0248
vn 0.9992 -0.0317 0.0248
vn -0.9955 -0.0445 0.0833
vn 0.9423 -0.2497 0.2229
vn -0.9992 -0.0264 -0.0308
vn 0.9955 -0.0463 0.0828
vn -0.9992 -0.0262 0.0305
vn 0.9992 -0.0256 -0.0312
vn -0.9956 -0.0832 -0.0425
vn 0.9462 -0.2058 -0.2498
vn -0.9433 -0.3290 -0.0430
vn 0.9957 -0.0821 -0.0439
vn -0.9992 -0.0317 -0.0248
vn 0.9992 0.0124 -0.0392
vn -0.9955 0.0445 -0.0833
vn 0.9423 0.2497 -0.2229
vn -0.9452 0.0360 -0.3244
vn 0.9955 0.0463 -0.0828
vn -0.9992 0.0040 -0.0409
vn 0.9992 0.0378 0.0110
vn -0.9956 0.0832 0.0425
vn 0.9992 0.0042 -0.0410
vn -0.9433 0.3290 0.0430
vn 0.9957 0.0821 0.0439
vn -0.9992 0.0392 0.0037
vn 0.9992 -0.0124 0.0392
vn 0.9992 0.0392 0.0039
vn -0.9452 -0.0360 0.3244
vn -0.9992 -0.0040 0.0409
vn 0.9992 -0.0378 -0.0110
usemtl None
s off
f 60//1 122//1 58//1
f 5//2 71//2 7//2
f 42//3 104//3 40//3
f 59//4 121//4 123//4
f 22//5 88//5 86//5
f 41//6 103//6 105//6
f 6//7 67//7 4//7
f 21//8 87//8 23//8
f 56//9 122//9 120//9
f 5//10 66//10 69//10
f 38//11 104//11 102//11
f 55//12 121//12 57//12
f 20//13 86//13 84//13
f 37//14 103//14 39//14
f 19//15 85//15 21//15
f 54//16 120//16 118//16
f 4//17 68//17 2//17
f 38//18 100//18 36//18
f 53//19 119//19 55//19
f 3//20 65//20 66//20
f 20//21 82//21 18//21
f 37//22 99//22 101//22
f 19//23 81//23 83//23
f 52//24 118//24 116//24
f 36//25 98//25 34//25
f 51//26 117//26 53//26
f 18//27 80//27 16//27
f 35//28 97//28 99//28
f 17//29 79//29 81//29
f 52//30 114//30 50//30
f 17//31 16//31 15//31
f 32//32 98//32 96//32
f 51//33 113//33 115//33
f 15//34 14//34 13//34
f 68//35 66//35 65//35
f 67//36 69//36 66//36
f 70//37 71//37 69//37
f 72//38 73//38 71//38
f 73//39 76//39 75//39
f 76//40 77//40 75//40
f 77//41 80//41 79//41
f 80//42 81//42 79//42
f 82//43 83//43 81//43
f 84//44 85//44 83//44
f 86//45 87//45 85//45
f 88//46 89//46 87//46
f 90//47 91//47 89//47
f 92//48 93//48 91//48
f 94//49 95//49 93//49
f 96//50 97//50 95//50
f 98//51 99//51 97//51
f 100//52 101//52 99//52
f 102//53 103//53 101//53
f 104//54 105//54 103//54
f 105//55 108//55 107//55
f 108//56 109//56 107//56
f 110//57 111//57 109//57
f 112//58 113//58 111//58
f 114//59 115//59 113//59
f 116//60 117//60 115//60
f 118//61 119//61 117//61
f 119//62 122//62 121//62
f 122//63 123//63 121//63
f 123//64 126//64 125//64
f 126//65 127//65 125//65
f 128//66 65//66 127//66
f 23//67 89//67 25//67
f 6//68 72//68 70//68
f 43//69 105//69 107//69
f 24//70 90//70 88//70
f 59//71 125//71 61//71
f 44//72 106//72 42//72
f 9//73 71//73 73//73
f 60//74 126//74 124//74
f 27//75 89//75 91//75
f 10//76 72//76 8//76
f 45//77 107//77 109//77
f 28//78 90//78 26//78
f 61//79 127//79 63//79
f 46//80 108//80 44//80
f 11//81 73//81 75//81
f 62//82 128//82 126//82
f 27//83 93//83 29//83
f 12//84 74//84 10//84
f 45//85 111//85 47//85
f 28//86 94//86 92//86
f 63//87 65//87 1//87
f 46//88 112//88 110//88
f 13//89 75//89 77//89
f 64//90 68//90 128//90
f 29//91 95//91 31//91
f 14//92 76//92 12//92
f 49//93 111//93 113//93
f 30//94 96//94 94//94
f 50//95 112//95 48//95
f 13//96 79//96 15//96
f 31//97 97//97 33//97
f 14//98 80//98 78//98
f 19//99 18//99 17//99
f 21//100 20//100 19//100
f 23//101 22//101 21//101
f 25//102 24//102 23//102
f 27//103 26//103 25//103
f 29//104 28//104 27//104
f 29//105 32//105 30//105
f 33//106 32//106 31//106
f 35//107 34//107 33//107
f 35//108 38//108 36//108
f 39//109 38//109 37//109
f 41//110 40//110 39//110
f 43//111 42//111 41//111
f 45//112 44//112 43//112
f 47//113 46//113 45//113
f 47//114 50//114 48//114
f 51//115 50//115 49//115
f 53//116 52//116 51//116
f 55//117 54//117 53//117
f 57//118 56//118 55//118
f 59//119 58//119 57//119
f 59//120 62//120 60//120
f 63//121 62//121 61//121
f 1//122 64//122 63//122
f 3//123 2//123 1//123
f 5//124 4//124 3//124
f 5//125 8//125 6//125
f 9//126 8//126 7//126
f 11//127 10//127 9//127
f 13//128 12//128 11//128
f 60//129 124//129 122//129
f 5//130 69//130 71//130
f 42//131 106//131 104//131
f 59//132 57//132 121//132
f 22//133 24//133 88//133
f 41//134 39//134 103//134
f 6//135 70//135 67//135
f 21//136 85//136 87//136
f 56//137 58//137 122//137
f 5//138 3//138 66//138
f 38//139 40//139 104//139
f 55//140 119//140 121//140
f 20//141 22//141 86//141
f 37//142 101//142 103//142
f 19//143 83//143 85//143
f 54//144 56//144 120//144
f 4//145 67//145 68//145
f 38//146 102//146 100//146
f 53//147 117//147 119//147
f 3//148 1//148 65//148
f 20//149 84//149 82//149
f 37//150 35//150 99//150
f 19//151 17//151 81//151
f 52//152 54//152 118//152
f 36//153 100//153 98//153
f 51//154 115//154 117//154
f 18//155 82//155 80//155
f 35//156 33//156 97//156
f 17//157 15//157 79//157
f 52//158 116//158 114//158
f 17//31 18//31 16//31
f 32//159 34//159 98//159
f 51//160 49//160 113//160
f 15//34 16//34 14//34
f 68//35 67//35 66//35
f 67//36 70//36 69//36
f 70//37 72//37 71//37
f 72//38 74//38 73//38
f 73//39 74//39 76//39
f 76//40 78//40 77//40
f 77//41 78//41 80//41
f 80//42 82//42 81//42
f 82//43 84//43 83//43
f 84//44 86//44 85//44
f 86//45 88//45 87//45
f 88//46 90//46 89//46
f 90//47 92//47 91//47
f 92//48 94//48 93//48
f 94//49 96//49 95//49
f 96//50 98//50 97//50
f 98//51 100//51 99//51
f 100//52 102//52 101//52
f 102//53 104//53 103//53
f 104//54 106//54 105//54
f 105//55 106//55 108//55
f 108//56 110//56 109//56
f 110//57 112//57 111//57
f 112//58 114//58 113//58
f 114//59 116//59 115//59
f 116//60 118//60 117//60
f 118//61 120//61 119//61
f 119//62 120//62 122//62
f 122//63 124//63 123//63
f 123//64 124//64 126//64
f 126//65 128//65 127//65
f 128//66 68//66 65//66
f 23//161 87//161 89//161
f 6//162 8//162 72//162
f 43//163 41//163 105//163
f 24//164 26//164 90//164
f 59//165 123//165 125//165
f 44//166 108//166 106//166
f 9//167 7//167 71//167
f 60//168 62//168 126//168
f 27//169 25//169 89//169
f 10//170 74//170 72//170
f 45//171 43//171 107//171
f 28//172 92//172 90//172
f 61//173 125//173 127//173
f 46//174 110//174 108//174
f 11//175 9//175 73//175
f 62//176 64//176 128//176
f 27//177 91//177 93//177
f 12//178 76//178 74//178
f 45//179 109//179 111//179
f 28//180 30//180 94//180
f 63//181 127//181 65//181
f 46//182 48//182 112//182
f 13//183 11//183 75//183
f 64//184 2//184 68//184
f 29//185 93//185 95//185
f 14//186 78//186 76//186
f 49//187 47//187 111//187
f 30//188 32//188 96//188
f 50//189 114//189 112//189
f 13//190 77//190 79//190
f 31//191 95//191 97//191
f 14//192 16//192 80//192
f 19//99 20//99 18//99
f 21//100 22//100 20//100
f 23//101 24//101 22//101
f 25//102 26//102 24//102
f 27//103 28//103 26//103
f 29//104 30//104 28//104
f 29//105 31//105 32//105
f 33//106 34//106 32//106
f 35//107 36//107 34//107
f 35//108 37//108 38//108
f 39//109 40//109 38//109
f 41//110 42//110 40//110
f 43//111 44//111 42//111
f 45//112 46//112 44//112
f 47//113 48//113 46//113
f 47//114 49//114 50//114
f 51//115 52//115 50//115
f 53//116 54//116 52//116
f 55//117 56//117 54//117
f 57//118 58//118 56//118
f 59//119 60//119 58//119
f 59//120 61//120 62//120
f 63//121 64//121 62//121
f 1//122 2//122 64//122
f 3//123 4//123 2//123
f 5//124 6//124 4//124
f 5//125 7//125 8//125
f 9//126 10//126 8//126
f 11//127 12//127 10//127
f 13//128 14//128 12//128
