# Blender v2.79 (sub 0) OBJ File: 'arrow.blend'
# www.blender.org
mtllib pen.mtl
o Cone
v -0.001865 1.224127 -0.212124
v -0.001865 0.001802 -0.011871
v 0.106201 1.217890 -0.220749
v 0.210114 1.199421 -0.246293
v 0.305881 1.169428 -0.287774
v 0.389821 1.129064 -0.343598
v 0.458709 1.079880 -0.411619
v 0.509897 1.023767 -0.489224
v 0.541419 0.962881 -0.573431
v 0.552063 0.899561 -0.661003
v 0.541419 0.836241 -0.748575
v 0.509897 0.775355 -0.832782
v 0.458709 0.719242 -0.910387
v 0.389821 0.670058 -0.978409
v 0.305881 0.629694 -1.034233
v 0.210114 0.599701 -1.075713
v 0.106201 0.581231 -1.101257
v -0.001865 0.574995 -1.109882
v -0.109931 0.581231 -1.101257
v -0.213844 0.599701 -1.075713
v -0.309611 0.629694 -1.034232
v -0.393551 0.670058 -0.978409
v -0.462439 0.719242 -0.910387
v -0.513627 0.775355 -0.832781
v -0.545149 0.836241 -0.748575
v -0.555792 0.899561 -0.661003
v -0.545149 0.962881 -0.573431
v -0.513627 1.023767 -0.489224
v -0.462438 1.079880 -0.411619
v -0.393550 1.129064 -0.343597
v -0.309610 1.169428 -0.287773
v -0.213843 1.199421 -0.246293
v -0.109930 1.217890 -0.220749
v -0.001864 4.865699 -2.845192
v 0.106201 4.859462 -2.853817
v 0.210114 4.840992 -2.879361
v 0.305881 4.810999 -2.920842
v 0.389821 4.770636 -2.976666
v 0.458709 4.721452 -3.044688
v 0.509898 4.665339 -3.122293
v 0.541419 4.604453 -3.206499
v 0.552063 4.541133 -3.294071
v 0.541419 4.477813 -3.381643
v 0.509898 4.416927 -3.465850
v 0.458709 4.360814 -3.543455
v 0.389821 4.311630 -3.611477
v 0.305881 4.271266 -3.667301
v 0.210114 4.241273 -3.708782
v 0.106201 4.222803 -3.734325
v -0.001865 4.216567 -3.742951
v -0.109931 4.222803 -3.734325
v -0.213844 4.241273 -3.708782
v -0.309610 4.271266 -3.667301
v -0.393551 4.311630 -3.611477
v -0.462438 4.360814 -3.543455
v -0.513627 4.416927 -3.465850
v -0.545148 4.477813 -3.381643
v -0.555792 4.541133 -3.294071
v -0.545148 4.604453 -3.206499
v -0.513626 4.665339 -3.122292
v -0.462438 4.721452 -3.044687
v -0.393550 4.770636 -2.976665
v -0.309609 4.811000 -2.920842
v -0.213843 4.840993 -2.879361
v -0.109929 4.859462 -2.853817
vn 0.0878 0.1611 0.9830
vn 0.2599 0.1410 0.9553
vn 0.4220 0.1016 0.9009
vn 0.5680 0.0445 0.8218
vn 0.6921 -0.0282 0.7213
vn 0.7896 -0.1137 0.6030
vn 0.8567 -0.2087 0.4716
vn 0.8910 -0.3096 0.3321
vn 0.8910 -0.4124 0.1899
vn 0.8567 -0.5133 0.0504
vn 0.7896 -0.6083 -0.0810
vn 0.6921 -0.6938 -0.1992
vn 0.5680 -0.7665 -0.2998
vn 0.4220 -0.8236 -0.3788
vn 0.2599 -0.8630 -0.4332
vn 0.0878 -0.8831 -0.4610
vn -0.0878 -0.8831 -0.4610
vn -0.2599 -0.8630 -0.4332
vn -0.4220 -0.8236 -0.3788
vn -0.5680 -0.7665 -0.2998
vn -0.6921 -0.6938 -0.1992
vn -0.7896 -0.6083 -0.0810
vn -0.8567 -0.5133 0.0504
vn -0.8910 -0.4124 0.1899
vn -0.8910 -0.3096 0.3321
vn -0.8567 -0.2087 0.4716
vn -0.7896 -0.1137 0.6030
vn -0.6921 -0.0282 0.7213
vn -0.5680 0.0445 0.8218
vn -0.4220 0.1016 0.9009
vn -0.2599 0.1410 0.9553
vn -0.0878 0.1611 0.9830
vn -0.4714 0.5167 0.7147
vn 0.0000 0.8104 -0.5859
vn 0.9569 -0.1701 -0.2352
vn -0.0980 -0.5831 -0.8065
vn -0.9952 -0.0574 -0.0794
vn 0.6344 0.4529 0.6264
vn -0.2903 0.5607 0.7755
vn 0.8819 -0.2762 -0.3820
vn -0.2903 -0.5607 -0.7755
vn -0.0980 0.5831 0.8065
vn -0.9952 0.0574 0.0794
vn 0.7730 0.3717 0.5141
vn 0.7730 -0.3717 -0.5141
vn -0.4714 -0.5167 -0.7147
vn -0.9569 0.1701 0.2352
vn 0.8819 0.2762 0.3820
vn 0.6344 -0.4529 -0.6264
vn -0.6344 -0.4529 -0.6264
vn 0.0980 0.5831 0.8065
vn -0.8819 0.2762 0.3820
vn 0.9569 0.1701 0.2352
vn 0.4714 -0.5167 -0.7147
vn -0.7730 -0.3717 -0.5141
vn -0.7730 0.3717 0.5141
vn 0.9952 0.0574 0.0794
vn 0.2903 -0.5607 -0.7755
vn -0.8819 -0.2762 -0.3820
vn 0.2903 0.5607 0.7755
vn -0.6344 0.4529 0.6264
vn 0.9952 -0.0574 -0.0794
vn 0.0980 -0.5831 -0.8065
vn -0.9569 -0.1701 -0.2352
vn 0.4714 0.5167 0.7147
vn 0.0000 0.8103 -0.5860
vn 0.0000 0.8103 -0.5859
usemtl None
s off
f 1//1 2//1 3//1
f 3//2 2//2 4//2
f 4//3 2//3 5//3
f 5//4 2//4 6//4
f 6//5 2//5 7//5
f 7//6 2//6 8//6
f 8//7 2//7 9//7
f 9//8 2//8 10//8
f 10//9 2//9 11//9
f 11//10 2//10 12//10
f 12//11 2//11 13//11
f 13//12 2//12 14//12
f 14//13 2//13 15//13
f 15//14 2//14 16//14
f 16//15 2//15 17//15
f 17//16 2//16 18//16
f 18//17 2//17 19//17
f 19//18 2//18 20//18
f 20//19 2//19 21//19
f 21//20 2//20 22//20
f 22//21 2//21 23//21
f 23//22 2//22 24//22
f 24//23 2//23 25//23
f 25//24 2//24 26//24
f 26//25 2//25 27//25
f 27//26 2//26 28//26
f 28//27 2//27 29//27
f 29//28 2//28 30//28
f 30//29 2//29 31//29
f 31//30 2//30 32//30
f 32//31 2//31 33//31
f 33//32 2//32 1//32
f 31//33 64//33 63//33
f 49//34 57//34 65//34
f 12//35 43//35 11//35
f 18//36 51//36 50//36
f 25//37 58//37 57//37
f 5//38 38//38 37//38
f 33//39 64//39 32//39
f 12//40 45//40 44//40
f 19//41 52//41 51//41
f 1//42 65//42 33//42
f 26//43 59//43 58//43
f 7//44 38//44 6//44
f 13//45 46//45 45//45
f 21//46 52//46 20//46
f 28//47 59//47 27//47
f 8//48 39//48 7//48
f 15//49 46//49 14//49
f 22//50 53//50 21//50
f 3//51 34//51 1//51
f 29//52 60//52 28//52
f 8//53 41//53 40//53
f 15//54 48//54 47//54
f 22//55 55//55 54//55
f 29//56 62//56 61//56
f 10//57 41//57 9//57
f 17//58 48//58 16//58
f 24//59 55//59 23//59
f 3//60 36//60 35//60
f 30//61 63//61 62//61
f 10//62 43//62 42//62
f 17//63 50//63 49//63
f 25//64 56//64 24//64
f 4//65 37//65 36//65
f 31//33 32//33 64//33
f 65//34 34//34 35//34
f 35//34 36//34 65//34
f 37//34 38//34 39//34
f 39//34 40//34 41//34
f 41//34 42//34 45//34
f 43//34 44//34 45//34
f 45//66 46//66 47//66
f 47//34 48//34 45//34
f 49//34 50//34 51//34
f 51//66 52//66 49//66
f 53//34 54//34 55//34
f 55//34 56//34 57//34
f 57//34 58//34 59//34
f 59//34 60//34 57//34
f 61//67 62//67 65//67
f 63//66 64//66 65//66
f 65//34 36//34 37//34
f 37//34 39//34 65//34
f 42//34 43//34 45//34
f 45//34 48//34 49//34
f 49//34 52//34 53//34
f 53//34 55//34 49//34
f 57//34 60//34 61//34
f 62//34 63//34 65//34
f 65//34 39//34 41//34
f 41//34 45//34 49//34
f 49//34 55//34 57//34
f 57//34 61//34 65//34
f 65//34 41//34 49//34
f 12//35 44//35 43//35
f 18//36 19//36 51//36
f 25//37 26//37 58//37
f 5//38 6//38 38//38
f 33//39 65//39 64//39
f 12//40 13//40 45//40
f 19//41 20//41 52//41
f 1//42 34//42 65//42
f 26//43 27//43 59//43
f 7//44 39//44 38//44
f 13//45 14//45 46//45
f 21//46 53//46 52//46
f 28//47 60//47 59//47
f 8//48 40//48 39//48
f 15//49 47//49 46//49
f 22//50 54//50 53//50
f 3//51 35//51 34//51
f 29//52 61//52 60//52
f 8//53 9//53 41//53
f 15//54 16//54 48//54
f 22//55 23//55 55//55
f 29//56 30//56 62//56
f 10//57 42//57 41//57
f 17//58 49//58 48//58
f 24//59 56//59 55//59
f 3//60 4//60 36//60
f 30//61 31//61 63//61
f 10//62 11//62 43//62
f 17//63 18//63 50//63
f 25//64 57//64 56//64
f 4//65 5//65 37//65
