# Blender v2.79 (sub 0) OBJ File: 'arrow.blend'
# www.blender.org
mtllib plat.mtl
o Cylinder.002
v 0.000000 -0.061642 -0.894194
v 0.000000 0.061642 -1.000000
v 0.174449 -0.061642 -0.877013
v 0.195090 0.061642 -0.980785
v 0.342193 -0.061642 -0.826128
v 0.382683 0.061642 -0.923880
v 0.496788 -0.061642 -0.743495
v 0.555570 0.061642 -0.831470
v 0.632291 -0.061642 -0.632291
v 0.707107 0.061642 -0.707107
v 0.743495 -0.061642 -0.496788
v 0.831470 0.061642 -0.555570
v 0.826128 -0.061642 -0.342193
v 0.923880 0.061642 -0.382683
v 0.877013 -0.061642 -0.174449
v 0.980785 0.061642 -0.195090
v 0.894194 -0.061642 -0.000000
v 1.000000 0.061642 -0.000000
v 0.877013 -0.061642 0.174449
v 0.980785 0.061642 0.195090
v 0.826128 -0.061642 0.342193
v 0.923880 0.061642 0.382683
v 0.743495 -0.061642 0.496788
v 0.831470 0.061642 0.555570
v 0.632291 -0.061642 0.632291
v 0.707107 0.061642 0.707107
v 0.496788 -0.061642 0.743495
v 0.555570 0.061642 0.831470
v 0.342193 -0.061642 0.826128
v 0.382683 0.061642 0.923880
v 0.174448 -0.061642 0.877013
v 0.195090 0.061642 0.980785
v -0.000000 -0.061642 0.894194
v -0.000000 0.061642 1.000000
v -0.174449 -0.061642 0.877012
v -0.195091 0.061642 0.980785
v -0.342194 -0.061642 0.826128
v -0.382684 0.061642 0.923879
v -0.496788 -0.061642 0.743495
v -0.555571 0.061642 0.831469
v -0.632291 -0.061642 0.632290
v -0.707107 0.061642 0.707106
v -0.743496 -0.061642 0.496787
v -0.831470 0.061642 0.555570
v -0.826128 -0.061642 0.342193
v -0.923880 0.061642 0.382683
v -0.877013 -0.061642 0.174448
v -0.980785 0.061642 0.195089
v -0.894194 -0.061642 -0.000001
v -1.000000 0.061642 -0.000001
v -0.877012 -0.061642 -0.174450
v -0.980785 0.061642 -0.195091
v -0.826127 -0.061642 -0.342194
v -0.923879 0.061642 -0.382684
v -0.743495 -0.061642 -0.496789
v -0.831469 0.061642 -0.555571
v -0.632290 -0.061642 -0.632292
v -0.707106 0.061642 -0.707108
v -0.496787 -0.061642 -0.743496
v -0.555569 0.061642 -0.831470
v -0.342192 -0.061642 -0.826128
v -0.382682 0.061642 -0.923880
v -0.174447 -0.061642 -0.877013
v -0.195089 0.061642 -0.980786
v 0.264905 0.129774 -1.331765
v -0.000000 0.129774 -1.357856
v 0.519629 0.129774 -1.254496
v 0.754385 0.129774 -1.129016
v 0.960149 0.129774 -0.960149
v 1.129016 0.129774 -0.754384
v 1.254496 0.129774 -0.519629
v 1.331766 0.129774 -0.264905
v 1.357856 0.129774 -0.000000
v 1.331766 0.129774 0.264905
v 1.254496 0.129774 0.519629
v 1.129016 0.129774 0.754385
v 0.960149 0.129774 0.960150
v 0.754384 0.129774 1.129017
v 0.519629 0.129774 1.254496
v 0.264904 0.129774 1.331766
v -0.000000 0.129774 1.357857
v -0.264905 0.129774 1.331766
v -0.519630 0.129774 1.254496
v -0.754385 0.129774 1.129016
v -0.960150 0.129774 0.960149
v -1.129017 0.129774 0.754384
v -1.254496 0.129774 0.519628
v -1.331766 0.129774 0.264904
v -1.357856 0.129774 -0.000001
v -1.331765 0.129774 -0.264906
v -1.254495 0.129774 -0.519630
v -1.129015 0.129774 -0.754386
v -0.960148 0.129774 -0.960151
v -0.754383 0.129774 -1.129017
v -0.519627 0.129774 -1.254496
v -0.264903 0.129774 -1.331766
v 0.264905 0.158756 -1.331765
v -0.000000 0.158756 -1.357856
v 0.519629 0.158756 -1.254496
v 0.754385 0.158756 -1.129016
v 0.960149 0.158756 -0.960149
v 1.129016 0.158756 -0.754384
v 1.254496 0.158756 -0.519629
v 1.331766 0.158756 -0.264905
v 1.357856 0.158756 -0.000000
v 1.331766 0.158756 0.264905
v 1.254496 0.158756 0.519629
v 1.129016 0.158756 0.754385
v 0.960149 0.158756 0.960150
v 0.754384 0.158756 1.129017
v 0.519629 0.158756 1.254496
v 0.264904 0.158756 1.331766
v -0.000000 0.158756 1.357857
v -0.264905 0.158756 1.331766
v -0.519630 0.158756 1.254496
v -0.754385 0.158756 1.129016
v -0.960150 0.158756 0.960149
v -1.129017 0.158756 0.754384
v -1.254496 0.158756 0.519628
v -1.331766 0.158756 0.264904
v -1.357856 0.158756 -0.000001
v -1.331765 0.158756 -0.264906
v -1.254495 0.158756 -0.519630
v -1.129015 0.158756 -0.754386
v -0.960148 0.158756 -0.960151
v -0.754383 0.158756 -1.129017
v -0.519627 0.158756 -1.254496
v -0.264903 0.158756 -1.331766
v 0.245897 0.158756 -1.236207
v -0.000000 0.158756 -1.260426
v 0.482344 0.158756 -1.164481
v 0.700255 0.158756 -1.048005
v 0.891255 0.158756 -0.891255
v 1.048006 0.158756 -0.700255
v 1.164481 0.158756 -0.482344
v 1.236207 0.158756 -0.245897
v 1.260426 0.158756 -0.000000
v 1.236207 0.158756 0.245897
v 1.164481 0.158756 0.482344
v 1.048006 0.158756 0.700255
v 0.891255 0.158756 0.891256
v 0.700255 0.158756 1.048006
v 0.482344 0.158756 1.164482
v 0.245897 0.158756 1.236207
v -0.000000 0.158756 1.260426
v -0.245897 0.158756 1.236207
v -0.482345 0.158756 1.164481
v -0.700256 0.158756 1.048005
v -0.891256 0.158756 0.891255
v -1.048006 0.158756 0.700254
v -1.164482 0.158756 0.482343
v -1.236207 0.158756 0.245896
v -1.260426 0.158756 -0.000001
v -1.236207 0.158756 -0.245898
v -1.164481 0.158756 -0.482345
v -1.048005 0.158756 -0.700256
v -0.891254 0.158756 -0.891257
v -0.700254 0.158756 -1.048006
v -0.482342 0.158756 -1.164482
v -0.245895 0.158756 -1.236207
v 0.163468 0.062150 -0.821807
v 0.000000 0.062150 -0.837908
v 0.320653 0.062150 -0.774126
v 0.465516 0.062150 -0.696695
v 0.592490 0.062150 -0.592490
v 0.696695 0.062150 -0.465516
v 0.774125 0.062150 -0.320653
v 0.821807 0.062150 -0.163468
v 0.837907 0.062150 -0.000000
v 0.821807 0.062150 0.163467
v 0.774126 0.062150 0.320653
v 0.696695 0.062150 0.465516
v 0.592490 0.062150 0.592490
v 0.465516 0.062150 0.696695
v 0.320653 0.062150 0.774126
v 0.163467 0.062150 0.821807
v -0.000000 0.062150 0.837907
v -0.163468 0.062150 0.821807
v -0.320654 0.062150 0.774125
v -0.465517 0.062150 0.696694
v -0.592490 0.062150 0.592490
v -0.696695 0.062150 0.465516
v -0.774126 0.062150 0.320653
v -0.821807 0.062150 0.163467
v -0.837907 0.062150 -0.000001
v -0.821807 0.062150 -0.163469
v -0.774125 0.062150 -0.320654
v -0.696694 0.062150 -0.465517
v -0.592489 0.062150 -0.592491
v -0.465515 0.062150 -0.696695
v -0.320652 0.062150 -0.774126
v -0.163466 0.062150 -0.821808
v 0.149432 0.005797 -0.751247
v 0.000000 0.005797 -0.765964
v 0.293122 0.005797 -0.707659
v 0.425547 0.005797 -0.636876
v 0.541619 0.005797 -0.541619
v 0.636876 0.005797 -0.425547
v 0.707659 0.005797 -0.293122
v 0.751247 0.005797 -0.149432
v 0.765964 0.005797 -0.000000
v 0.751247 0.005797 0.149432
v 0.707659 0.005797 0.293122
v 0.636876 0.005797 0.425547
v 0.541619 0.005797 0.541618
v 0.425547 0.005797 0.636876
v 0.293122 0.005797 0.707659
v 0.149432 0.005797 0.751247
v -0.000000 0.005797 0.765964
v -0.149433 0.005797 0.751246
v -0.293122 0.005797 0.707659
v -0.425547 0.005797 0.636876
v -0.541619 0.005797 0.541618
v -0.636876 0.005797 0.425546
v -0.707659 0.005797 0.293121
v -0.751247 0.005797 0.149431
v -0.765964 0.005797 -0.000001
v -0.751246 0.005797 -0.149433
v -0.707658 0.005797 -0.293123
v -0.636876 0.005797 -0.425548
v -0.541618 0.005797 -0.541619
v -0.425546 0.005797 -0.636877
v -0.293121 0.005797 -0.707659
v -0.149431 0.005797 -0.751247
vn 0.0745 -0.6495 -0.7567
vn 0.2207 -0.6495 -0.7277
vn 0.3585 -0.6495 -0.6706
vn 0.4824 -0.6495 -0.5878
vn 0.5878 -0.6495 -0.4824
vn 0.6706 -0.6495 -0.3584
vn 0.7277 -0.6495 -0.2207
vn 0.7567 -0.6495 -0.0745
vn 0.7567 -0.6495 0.0745
vn 0.7277 -0.6495 0.2207
vn 0.6706 -0.6495 0.3584
vn 0.5878 -0.6495 0.4824
vn 0.4824 -0.6495 0.5878
vn 0.3584 -0.6495 0.6706
vn 0.2207 -0.6495 0.7277
vn 0.0745 -0.6495 0.7567
vn -0.0745 -0.6495 0.7567
vn -0.2207 -0.6495 0.7277
vn -0.3585 -0.6495 0.6706
vn -0.4824 -0.6495 0.5878
vn -0.5878 -0.6495 0.4824
vn -0.6706 -0.6495 0.3584
vn -0.7277 -0.6495 0.2207
vn -0.7567 -0.6495 0.0745
vn -0.7567 -0.6495 -0.0745
vn -0.7277 -0.6495 -0.2207
vn -0.6706 -0.6495 -0.3585
vn -0.5878 -0.6495 -0.4824
vn -0.4824 -0.6495 -0.5878
vn -0.3584 -0.6495 -0.6706
vn -0.1192 -0.9822 -0.1453
vn -0.2207 -0.6495 -0.7277
vn -0.0745 -0.6495 -0.7567
vn 0.0000 -1.0000 -0.0000
vn -0.2903 0.0000 0.9569
vn 0.1798 -0.9822 -0.0545
vn 0.0184 -0.9822 0.1870
vn -0.1870 -0.9822 -0.0184
vn 0.0886 -0.9822 -0.1657
vn 0.1453 -0.9822 0.1192
vn -0.1453 -0.9822 0.1192
vn -0.0886 -0.9822 -0.1657
vn 0.1870 -0.9822 -0.0184
vn -0.0184 -0.9822 0.1870
vn -0.1798 -0.9822 -0.0545
vn 0.1192 -0.9822 -0.1453
vn 0.1192 -0.9822 0.1453
vn -0.1657 -0.9822 0.0886
vn -0.0545 -0.9822 -0.1798
vn 0.1870 -0.9822 0.0184
vn -0.0545 -0.9822 0.1798
vn -0.1657 -0.9822 -0.0886
vn 0.1453 -0.9822 -0.1192
vn 0.0886 -0.9822 0.1657
vn -0.1798 -0.9822 0.0545
vn 0.0184 -0.9822 -0.1870
vn -0.0184 -0.9822 -0.1870
vn 0.1798 -0.9822 0.0545
vn -0.0886 -0.9822 0.1657
vn -0.1453 -0.9822 -0.1192
vn 0.1657 -0.9822 -0.0886
vn 0.0545 -0.9822 0.1798
vn -0.1870 -0.9822 0.0184
vn 0.0545 -0.9822 -0.1798
vn 0.1657 -0.9822 0.0886
vn -0.1192 -0.9822 0.1453
vn 0.0000 1.0000 0.0000
vn 0.7730 0.0000 -0.6344
vn -0.0980 0.0000 -0.9952
vn -0.4714 0.0000 0.8819
vn 0.8819 0.0000 -0.4714
vn -0.6344 0.0000 0.7730
vn 0.9569 0.0000 -0.2903
vn -0.7730 0.0000 0.6344
vn 0.9952 0.0000 -0.0980
vn -0.8819 0.0000 0.4714
vn 0.9952 0.0000 0.0980
vn -0.9569 0.0000 0.2903
vn 0.9569 0.0000 0.2903
vn -0.9952 0.0000 0.0980
vn 0.8819 0.0000 0.4714
vn -0.9952 0.0000 -0.0980
vn 0.7730 0.0000 0.6344
vn -0.9569 0.0000 -0.2903
vn 0.6344 0.0000 0.7730
vn -0.8819 0.0000 -0.4714
vn 0.4714 0.0000 0.8819
vn 0.0980 0.0000 -0.9952
vn -0.7730 0.0000 -0.6344
vn 0.2903 0.0000 0.9569
vn 0.2903 0.0000 -0.9569
vn -0.6344 0.0000 -0.7730
vn 0.0980 0.0000 0.9952
vn 0.4714 0.0000 -0.8819
vn -0.4714 0.0000 -0.8819
vn -0.0980 0.0000 0.9952
vn 0.6344 0.0000 -0.7730
vn -0.2903 0.0000 -0.9569
vn 0.2228 0.9746 -0.0219
vn 0.5455 0.7858 0.2916
vn -0.1975 0.9746 -0.1056
vn 0.2228 0.9746 0.0219
vn -0.1731 0.9746 -0.1421
vn 0.2143 0.9746 0.0650
vn -0.1421 0.9746 -0.1731
vn 0.1975 0.9746 0.1056
vn -0.1056 0.9746 -0.1975
vn -0.0219 0.9746 0.2228
vn 0.1731 0.9746 0.1421
vn -0.0650 0.9746 -0.2143
vn -0.0650 0.9746 0.2143
vn 0.1421 0.9746 0.1731
vn -0.0219 0.9746 -0.2228
vn -0.1056 0.9746 0.1975
vn 0.1056 0.9746 0.1975
vn 0.0219 0.9746 -0.2228
vn -0.1421 0.9746 0.1731
vn 0.0650 0.9746 0.2143
vn 0.0650 0.9746 -0.2143
vn -0.1731 0.9746 0.1421
vn 0.0219 0.9746 0.2228
vn 0.1056 0.9746 -0.1975
vn -0.1975 0.9746 0.1056
vn 0.1421 0.9746 -0.1731
vn -0.2143 0.9746 0.0650
vn 0.1731 0.9746 -0.1421
vn -0.2228 0.9746 0.0219
vn 0.1975 0.9746 -0.1056
vn -0.2228 0.9746 -0.0219
vn 0.2143 0.9746 -0.0650
vn -0.2143 0.9746 -0.0650
vn -0.2916 0.7858 -0.5455
vn -0.0606 0.7858 0.6155
vn 0.4781 0.7858 0.3924
vn -0.1795 0.7858 -0.5919
vn -0.1795 0.7858 0.5919
vn 0.3924 0.7858 0.4781
vn -0.0606 0.7858 -0.6155
vn -0.2916 0.7858 0.5455
vn 0.2916 0.7858 0.5455
vn 0.0606 0.7858 -0.6155
vn -0.3924 0.7858 0.4781
vn 0.1795 0.7858 0.5919
vn 0.1795 0.7858 -0.5919
vn -0.4781 0.7858 0.3924
vn 0.0606 0.7858 0.6155
vn 0.2916 0.7858 -0.5455
vn -0.5455 0.7858 0.2916
vn 0.3924 0.7858 -0.4781
vn -0.5919 0.7858 0.1795
vn 0.4781 0.7858 -0.3924
vn -0.6155 0.7858 0.0606
vn 0.5455 0.7858 -0.2916
vn -0.6155 0.7858 -0.0606
vn 0.5919 0.7858 -0.1795
vn -0.5919 0.7858 -0.1795
vn 0.6155 0.7858 -0.0606
vn -0.5455 0.7858 -0.2916
vn 0.6155 0.7858 0.0606
vn -0.4781 0.7858 -0.3924
vn 0.5919 0.7858 0.1795
vn -0.3924 0.7858 -0.4781
vn 0.3584 -0.6495 -0.6706
vn -0.3584 -0.6495 0.6706
usemtl None
s off
f 1//1 4//1 3//1
f 4//2 5//2 3//2
f 6//3 7//3 5//3
f 8//4 9//4 7//4
f 10//5 11//5 9//5
f 11//6 14//6 13//6
f 13//7 16//7 15//7
f 16//8 17//8 15//8
f 18//9 19//9 17//9
f 20//10 21//10 19//10
f 22//11 23//11 21//11
f 24//12 25//12 23//12
f 26//13 27//13 25//13
f 28//14 29//14 27//14
f 30//15 31//15 29//15
f 32//16 33//16 31//16
f 34//17 35//17 33//17
f 36//18 37//18 35//18
f 38//19 39//19 37//19
f 39//20 42//20 41//20
f 41//21 44//21 43//21
f 44//22 45//22 43//22
f 45//23 48//23 47//23
f 48//24 49//24 47//24
f 50//25 51//25 49//25
f 51//26 54//26 53//26
f 53//27 56//27 55//27
f 56//28 57//28 55//28
f 57//29 60//29 59//29
f 59//30 62//30 61//30
f 58//31 94//31 60//31
f 61//32 64//32 63//32
f 64//33 1//33 63//33
f 31//34 47//34 63//34
f 82//35 115//35 83//35
f 16//36 71//36 72//36
f 34//37 80//37 81//37
f 50//38 90//38 52//38
f 6//39 68//39 8//39
f 24//40 77//40 26//40
f 42//41 86//41 44//41
f 60//42 95//42 62//42
f 18//43 72//43 73//43
f 34//44 82//44 36//44
f 52//45 91//45 54//45
f 8//46 69//46 10//46
f 28//47 77//47 78//47
f 44//48 87//48 46//48
f 62//49 96//49 64//49
f 18//50 74//50 20//50
f 38//51 82//51 83//51
f 54//52 92//52 56//52
f 12//53 69//53 70//53
f 28//54 79//54 30//54
f 46//55 88//55 48//55
f 2//56 65//56 4//56
f 64//57 66//57 2//57
f 20//58 75//58 22//58
f 38//59 84//59 40//59
f 56//60 93//60 58//60
f 12//61 71//61 14//61
f 30//62 80//62 32//62
f 48//63 89//63 50//63
f 6//64 65//64 67//64
f 24//65 75//65 76//65
f 40//66 85//66 42//66
f 117//67 150//67 118//67
f 69//68 102//68 70//68
f 96//69 98//69 66//69
f 83//70 116//70 84//70
f 70//71 103//71 71//71
f 84//72 117//72 85//72
f 71//73 104//73 72//73
f 85//74 118//74 86//74
f 72//75 105//75 73//75
f 86//76 119//76 87//76
f 73//77 106//77 74//77
f 87//78 120//78 88//78
f 74//79 107//79 75//79
f 88//80 121//80 89//80
f 75//81 108//81 76//81
f 89//82 122//82 90//82
f 76//83 109//83 77//83
f 90//84 123//84 91//84
f 77//85 110//85 78//85
f 91//86 124//86 92//86
f 78//87 111//87 79//87
f 66//88 97//88 65//88
f 92//89 125//89 93//89
f 79//90 112//90 80//90
f 65//91 99//91 67//91
f 93//92 126//92 94//92
f 80//93 113//93 81//93
f 67//94 100//94 68//94
f 94//95 127//95 95//95
f 81//96 114//96 82//96
f 68//97 101//97 69//97
f 95//98 128//98 96//98
f 152//99 185//99 153//99
f 104//67 137//67 105//67
f 118//67 151//67 119//67
f 105//67 138//67 106//67
f 120//67 151//67 152//67
f 106//67 139//67 107//67
f 121//67 152//67 153//67
f 107//67 140//67 108//67
f 121//67 154//67 122//67
f 109//67 140//67 141//67
f 123//67 154//67 155//67
f 109//67 142//67 110//67
f 124//67 155//67 156//67
f 110//67 143//67 111//67
f 97//67 130//67 129//67
f 125//67 156//67 157//67
f 111//67 144//67 112//67
f 97//67 131//67 99//67
f 126//67 157//67 158//67
f 112//67 145//67 113//67
f 99//67 132//67 100//67
f 126//67 159//67 127//67
f 113//67 146//67 114//67
f 100//67 133//67 101//67
f 127//67 160//67 128//67
f 114//67 147//67 115//67
f 101//67 134//67 102//67
f 128//67 130//67 98//67
f 115//67 148//67 116//67
f 103//67 134//67 135//67
f 116//67 149//67 117//67
f 103//67 136//67 104//67
f 188//100 219//100 220//100
f 139//101 172//101 140//101
f 154//102 185//102 186//102
f 140//103 173//103 141//103
f 154//104 187//104 155//104
f 141//105 174//105 142//105
f 156//106 187//106 188//106
f 142//107 175//107 143//107
f 129//108 162//108 161//108
f 157//109 188//109 189//109
f 143//110 176//110 144//110
f 131//111 161//111 163//111
f 158//112 189//112 190//112
f 144//113 177//113 145//113
f 132//114 163//114 164//114
f 158//115 191//115 159//115
f 146//116 177//116 178//116
f 132//117 165//117 133//117
f 159//118 192//118 160//118
f 146//119 179//119 147//119
f 133//120 166//120 134//120
f 160//121 162//121 130//121
f 148//122 179//122 180//122
f 135//123 166//123 167//123
f 149//124 180//124 181//124
f 135//125 168//125 136//125
f 150//126 181//126 182//126
f 136//127 169//127 137//127
f 150//128 183//128 151//128
f 137//129 170//129 138//129
f 152//130 183//130 184//130
f 138//131 171//131 139//131
f 211//67 203//67 219//67
f 174//132 207//132 175//132
f 161//133 194//133 193//133
f 189//134 220//134 221//134
f 175//135 208//135 176//135
f 163//136 193//136 195//136
f 190//137 221//137 222//137
f 176//138 209//138 177//138
f 163//139 196//139 164//139
f 190//140 223//140 191//140
f 177//141 210//141 178//141
f 164//142 197//142 165//142
f 191//143 224//143 192//143
f 178//144 211//144 179//144
f 165//145 198//145 166//145
f 192//146 194//146 162//146
f 180//147 211//147 212//147
f 166//148 199//148 167//148
f 181//149 212//149 213//149
f 167//150 200//150 168//150
f 181//151 214//151 182//151
f 169//152 200//152 201//152
f 182//153 215//153 183//153
f 169//154 202//154 170//154
f 184//155 215//155 216//155
f 171//156 202//156 203//156
f 184//157 217//157 185//157
f 171//158 204//158 172//158
f 185//159 218//159 186//159
f 172//160 205//160 173//160
f 187//161 218//161 219//161
f 173//162 206//162 174//162
f 1//1 2//1 4//1
f 4//2 6//2 5//2
f 6//163 8//163 7//163
f 8//4 10//4 9//4
f 10//5 12//5 11//5
f 11//6 12//6 14//6
f 13//7 14//7 16//7
f 16//8 18//8 17//8
f 18//9 20//9 19//9
f 20//10 22//10 21//10
f 22//11 24//11 23//11
f 24//12 26//12 25//12
f 26//13 28//13 27//13
f 28//14 30//14 29//14
f 30//15 32//15 31//15
f 32//16 34//16 33//16
f 34//17 36//17 35//17
f 36//18 38//18 37//18
f 38//164 40//164 39//164
f 39//20 40//20 42//20
f 41//21 42//21 44//21
f 44//22 46//22 45//22
f 45//23 46//23 48//23
f 48//24 50//24 49//24
f 50//25 52//25 51//25
f 51//26 52//26 54//26
f 53//27 54//27 56//27
f 56//28 58//28 57//28
f 57//29 58//29 60//29
f 59//30 60//30 62//30
f 58//31 93//31 94//31
f 61//32 62//32 64//32
f 64//33 2//33 1//33
f 63//34 1//34 3//34
f 3//34 5//34 7//34
f 7//34 9//34 15//34
f 11//34 13//34 15//34
f 15//34 17//34 23//34
f 19//34 21//34 23//34
f 23//34 25//34 27//34
f 27//34 29//34 31//34
f 31//34 33//34 35//34
f 35//34 37//34 39//34
f 39//34 41//34 47//34
f 43//34 45//34 47//34
f 47//34 49//34 51//34
f 51//34 53//34 55//34
f 55//34 57//34 63//34
f 59//34 61//34 63//34
f 63//34 3//34 7//34
f 9//34 11//34 15//34
f 17//34 19//34 23//34
f 23//34 27//34 31//34
f 31//34 35//34 47//34
f 41//34 43//34 47//34
f 47//34 51//34 55//34
f 57//34 59//34 63//34
f 63//34 7//34 15//34
f 15//34 23//34 63//34
f 35//34 39//34 47//34
f 47//34 55//34 63//34
f 63//34 23//34 31//34
f 82//35 114//35 115//35
f 16//36 14//36 71//36
f 34//37 32//37 80//37
f 50//38 89//38 90//38
f 6//39 67//39 68//39
f 24//40 76//40 77//40
f 42//41 85//41 86//41
f 60//42 94//42 95//42
f 18//43 16//43 72//43
f 34//44 81//44 82//44
f 52//45 90//45 91//45
f 8//46 68//46 69//46
f 28//47 26//47 77//47
f 44//48 86//48 87//48
f 62//49 95//49 96//49
f 18//50 73//50 74//50
f 38//51 36//51 82//51
f 54//52 91//52 92//52
f 12//53 10//53 69//53
f 28//54 78//54 79//54
f 46//55 87//55 88//55
f 2//56 66//56 65//56
f 64//57 96//57 66//57
f 20//58 74//58 75//58
f 38//59 83//59 84//59
f 56//60 92//60 93//60
f 12//61 70//61 71//61
f 30//62 79//62 80//62
f 48//63 88//63 89//63
f 6//64 4//64 65//64
f 24//65 22//65 75//65
f 40//66 84//66 85//66
f 117//67 149//67 150//67
f 69//68 101//68 102//68
f 96//69 128//69 98//69
f 83//70 115//70 116//70
f 70//71 102//71 103//71
f 84//72 116//72 117//72
f 71//73 103//73 104//73
f 85//74 117//74 118//74
f 72//75 104//75 105//75
f 86//76 118//76 119//76
f 73//77 105//77 106//77
f 87//78 119//78 120//78
f 74//79 106//79 107//79
f 88//80 120//80 121//80
f 75//81 107//81 108//81
f 89//82 121//82 122//82
f 76//83 108//83 109//83
f 90//84 122//84 123//84
f 77//85 109//85 110//85
f 91//86 123//86 124//86
f 78//87 110//87 111//87
f 66//88 98//88 97//88
f 92//89 124//89 125//89
f 79//90 111//90 112//90
f 65//91 97//91 99//91
f 93//92 125//92 126//92
f 80//93 112//93 113//93
f 67//94 99//94 100//94
f 94//95 126//95 127//95
f 81//96 113//96 114//96
f 68//97 100//97 101//97
f 95//98 127//98 128//98
f 152//99 184//99 185//99
f 104//67 136//67 137//67
f 118//67 150//67 151//67
f 105//67 137//67 138//67
f 120//67 119//67 151//67
f 106//67 138//67 139//67
f 121//67 120//67 152//67
f 107//67 139//67 140//67
f 121//67 153//67 154//67
f 109//67 108//67 140//67
f 123//67 122//67 154//67
f 109//67 141//67 142//67
f 124//67 123//67 155//67
f 110//67 142//67 143//67
f 97//67 98//67 130//67
f 125//67 124//67 156//67
f 111//67 143//67 144//67
f 97//67 129//67 131//67
f 126//67 125//67 157//67
f 112//67 144//67 145//67
f 99//67 131//67 132//67
f 126//67 158//67 159//67
f 113//67 145//67 146//67
f 100//67 132//67 133//67
f 127//67 159//67 160//67
f 114//67 146//67 147//67
f 101//67 133//67 134//67
f 128//67 160//67 130//67
f 115//67 147//67 148//67
f 103//67 102//67 134//67
f 116//67 148//67 149//67
f 103//67 135//67 136//67
f 188//100 187//100 219//100
f 139//101 171//101 172//101
f 154//102 153//102 185//102
f 140//103 172//103 173//103
f 154//104 186//104 187//104
f 141//105 173//105 174//105
f 156//106 155//106 187//106
f 142//107 174//107 175//107
f 129//108 130//108 162//108
f 157//109 156//109 188//109
f 143//110 175//110 176//110
f 131//111 129//111 161//111
f 158//112 157//112 189//112
f 144//113 176//113 177//113
f 132//114 131//114 163//114
f 158//115 190//115 191//115
f 146//116 145//116 177//116
f 132//117 164//117 165//117
f 159//118 191//118 192//118
f 146//119 178//119 179//119
f 133//120 165//120 166//120
f 160//121 192//121 162//121
f 148//122 147//122 179//122
f 135//123 134//123 166//123
f 149//124 148//124 180//124
f 135//125 167//125 168//125
f 150//126 149//126 181//126
f 136//127 168//127 169//127
f 150//128 182//128 183//128
f 137//129 169//129 170//129
f 152//130 151//130 183//130
f 138//131 170//131 171//131
f 195//67 193//67 223//67
f 194//67 224//67 223//67
f 223//67 222//67 219//67
f 221//67 220//67 219//67
f 219//67 218//67 217//67
f 217//67 216//67 219//67
f 215//67 214//67 213//67
f 213//67 212//67 211//67
f 211//67 210//67 209//67
f 209//67 208//67 207//67
f 207//67 206//67 205//67
f 205//67 204//67 203//67
f 203//67 202//67 201//67
f 201//67 200//67 199//67
f 199//67 198//67 197//67
f 197//67 196//67 199//67
f 193//67 194//67 223//67
f 222//67 221//67 219//67
f 219//67 216//67 215//67
f 215//67 213//67 219//67
f 211//67 209//67 203//67
f 207//67 205//67 203//67
f 203//67 201//67 199//67
f 199//67 196//67 195//67
f 195//67 223//67 219//67
f 219//67 213//67 211//67
f 209//67 207//67 203//67
f 203//67 199//67 195//67
f 195//67 219//67 203//67
f 174//132 206//132 207//132
f 161//133 162//133 194//133
f 189//134 188//134 220//134
f 175//135 207//135 208//135
f 163//136 161//136 193//136
f 190//137 189//137 221//137
f 176//138 208//138 209//138
f 163//139 195//139 196//139
f 190//140 222//140 223//140
f 177//141 209//141 210//141
f 164//142 196//142 197//142
f 191//143 223//143 224//143
f 178//144 210//144 211//144
f 165//145 197//145 198//145
f 192//146 224//146 194//146
f 180//147 179//147 211//147
f 166//148 198//148 199//148
f 181//149 180//149 212//149
f 167//150 199//150 200//150
f 181//151 213//151 214//151
f 169//152 168//152 200//152
f 182//153 214//153 215//153
f 169//154 201//154 202//154
f 184//155 183//155 215//155
f 171//156 170//156 202//156
f 184//157 216//157 217//157
f 171//158 203//158 204//158
f 185//159 217//159 218//159
f 172//160 204//160 205//160
f 187//161 186//161 218//161
f 173//162 205//162 206//162
